<?xml version="1.0" encoding="UTF-8"?>
<svg xmlns="http://www.w3.org/2000/svg" xmlns:xlink="http://www.w3.org/1999/xlink" width="80pt" height="99pt" viewBox="0 0 80 99" version="1.1">
<g id="surface1">
<path style=" stroke:none;fill-rule:evenodd;fill:rgb(95.686275%,1.568627%,2.745098%);fill-opacity:1;" d="M 51.335938 2.199219 C 60.707031 -2.664062 72.308594 0.878906 77.242188 10.117188 C 82.175781 19.355469 78.578125 30.785156 69.207031 35.648438 L 61.5 39.683594 C 68.136719 39.925781 74.46875 43.554688 77.785156 49.765625 C 82.71875 59.003906 79.125 70.429688 69.746094 75.296875 L 28.65625 96.800781 C 19.285156 101.664062 7.679688 98.121094 2.75 88.882812 C -2.183594 79.644531 1.414062 68.214844 10.785156 63.351562 L 18.492188 59.316406 C 11.855469 59.074219 5.523438 55.445312 2.207031 49.234375 C -2.726562 39.996094 0.875 28.570312 10.246094 23.703125 Z M 29.15625 34.269531 L 54.027344 49.5625 L 29.15625 64.785156 Z M 29.15625 34.269531 "/>
</g>
</svg>
